<svg width="85" height="54" viewBox="0 0 85 54" fill="none" xmlns="http://www.w3.org/2000/svg">
<g id="Logo">
<path id="Vector" d="M0 26.8833C0 26.8833 38.5402 87.3707 84.3158 26.8833C38.5353 -33.6041 0 26.8833 0 26.8833ZM42.1603 49.7002C29.6854 49.7002 19.5783 39.4879 19.5783 26.8833C19.5783 14.2787 29.6854 4.06644 42.1603 4.06644C54.6353 4.06644 64.7375 14.2836 64.7375 26.8833C64.7375 39.483 54.6304 49.7002 42.1603 49.7002Z" fill="#25245B"/>
<path id="Vector_2" d="M42.1579 15.8853L42.2296 18.1023C42.3883 22.8516 46.4132 26.6695 51.4264 26.815L53.7666 26.883L51.4264 26.9509C46.4132 27.1013 42.3832 30.9143 42.2296 35.6637L42.1579 37.8807L42.0862 35.6637C41.9275 30.9143 37.9026 27.0964 32.8894 26.9509L30.5492 26.883L32.8894 26.815C37.9026 26.6647 41.9326 22.8516 42.0862 18.1023L42.1579 15.8853Z" fill="#25245B"/>
</g>
</svg>
